<svg xmlns="http://www.w3.org/2000/svg" viewBox="0 0 56 59.93"><defs><style>.cls-1{fill:#78909c;}.cls-2{fill:#b0bec5;}.cls-3{fill:#f74f80;}.cls-4{fill:#37474f;}</style></defs><title>Animal Cat</title><g id="Layer_2" data-name="Layer 2"><g id="Layer_1-2" data-name="Layer 1"><path class="cls-1" d="M32,7.93S35.54.85,46,0a4.34,4.34,0,0,1,3.4,1.28h0a4.31,4.31,0,0,1,1,1.64c.84,2.45,2.34,9.1-2.4,17Z"/><path class="cls-1" d="M23.31,7.93S19.76.85,9.34,0A4.34,4.34,0,0,0,5.94,1.3h0a4.31,4.31,0,0,0-1,1.64c-.84,2.45-2.34,9.1,2.4,17Z"/><path class="cls-2" d="M56,35.93c0-15.46-12.54-32-28-32S0,20.47,0,35.93s12.54,24,28,24S56,51.4,56,35.93Z"/><path class="cls-1" d="M32,51.46a5,5,0,0,1-5-5V40.93a1,1,0,0,1,2,0v5.53a3,3,0,0,0,1.66,2.68,3,3,0,0,0,2.68,0L35.55,48a1,1,0,1,1,.89,1.79l-2.21,1.11A5,5,0,0,1,32,51.46Z"/><path class="cls-1" d="M24,51.46a5,5,0,0,1-2.24-.53l-2.21-1.11A1,1,0,0,1,20.45,48l2.21,1.11a3,3,0,0,0,2.68,0A3,3,0,0,0,27,46.46V40.93a1,1,0,0,1,2,0v5.53a5,5,0,0,1-5,5Z"/><path class="cls-3" d="M33.6,40.6c0,2.67-2.8,5.33-5.6,5.33s-5.6-2.67-5.6-5.33c0-2.21,2.51-2.67,5.6-2.67S33.6,38.39,33.6,40.6Z"/><circle class="cls-4" cx="39" cy="28.93" r="5"/><circle class="cls-4" cx="17" cy="28.93" r="5"/><path class="cls-1" d="M18,38.93h-.17l-12-2a1,1,0,1,1,.33-2l12,2a1,1,0,0,1-.16,2Z"/><path class="cls-1" d="M18,42.93H6a1,1,0,0,1,0-2H18a1,1,0,0,1,0,2Z"/><path class="cls-1" d="M38,38.93a1,1,0,0,1-.16-2l12-2a1,1,0,0,1,.33,2l-12,2Z"/><path class="cls-1" d="M50,42.93H38a1,1,0,0,1,0-2H50a1,1,0,0,1,0,2Z"/></g></g></svg>