<svg viewBox="0 0 100 100" xmlns="http://www.w3.org/2000/svg" xmlns:xlink="http://www.w3.org/1999/xlink" width="100" height="100">
<defs>



<g id="bg" fill="#ff9311" class="bg"><path d="M0,50a50,50 0 1,0 100,0a50,50 0 1,0 -100,0"/></g><g id="fg"><path opacity="0.1" d="M85.355,14.645l-70.711,70.71c19.526,19.526,51.185,19.526,70.711,0 C104.882,65.83,104.882,34.171,85.355,14.645z"/><path opacity="0.1" d="M50,0v100c27.614,0,50-22.386,50-50S77.614,0,50,0z"/></g> 
 <path fill="#002a4a" id="i-424" d="M14.798,15.35c-0.97-1.529-1.21-3.58-0.659-5.609C14.758,7.4,17.208,4,19.999,4c0.83,0,1.55,0.33,2.09,0.959 c1.36,1.58,1.15,4.561,0.9,6.191c-0.07,0.43-0.12,0.869-0.18,1.289c-0.34,2.631-0.73,5.6-3.36,5.6c-0.2,0-0.41-0.01-0.64-0.059 C17.048,17.65,15.668,16.74,14.798,15.35z M38.498,17.141c-0.44-0.262-0.94-0.391-1.48-0.391c-2.42,0-5.13,2.609-5.85,3.699 c-1.63,2.441-3.65,5.49-0.88,8.26c1.03,1.031,2.34,1.55,3.88,1.55c0.66,0,1.36-0.099,2.08-0.3c1.63-0.439,2.33-1.51,3.39-3.129 l0.181-0.281c0.869-1.309,1.09-2.648,1.17-4.51C41.058,20.42,40.928,18.57,38.498,17.141z M28.908,17.99 c0.14,0.01,0.27,0.01,0.43,0.019c3.51,0,5.39-3.589,5.65-6.929c0.149-1.961-0.59-4.08-1.931-5.531c-0.93-1-2.029-1.549-3.09-1.549 c-2.97,0-3.44,3.24-3.86,6.1l-0.108,0.75c-0.45,2.99-0.241,4.83,0.669,5.99C27.198,17.509,27.968,17.91,28.908,17.99z M15.699,27.709c0.64-0.629,2.6-2.99,1.25-7c-0.46-1.359-2.761-4.77-5.46-4.77c-0.25,0-0.5,0.029-0.731,0.09 C7.918,16.74,6.999,21.459,6.999,23c0,2.15,0.88,3.869,2.47,4.85c0.49,0.301,1.799,1.01,3.34,1.01 C13.949,28.859,14.938,28.459,15.699,27.709z M32.368,33.109c-1.641-1.41-4.13-3.539-5.54-5.66c-0.15-0.23-0.29-0.49-0.439-0.77 c-0.56-1.07-1.411-2.689-3.21-2.689c-0.09,0-0.18,0.01-0.289,0.01c-1.15,0.119-1.871,0.959-2.861,2.119 c-1.1,1.291-2.6,3.061-5.579,5.051c-3.181,2.119-3.87,4.49-2.38,8.209c0.909,2.271,2.699,3.471,5.189,3.471 c1.391,0,2.731-0.359,3.701-0.631c0.37-0.1,0.819-0.219,0.899-0.229c0.281,0.039,1.101,0.34,1.83,0.609c1.691,0.619,3.8,1.4,5.3,1.4 c2.39,0,4.56-1.84,5.439-3.65c0.65-1.35,1.74-3.6-0.729-6.061C33.418,34.009,32.948,33.609,32.368,33.109z"/> 
</defs>
<use x="0" y="0" class="bg" xlink:href="#bg"/>
<use x="26" y="26" xlink:href="#i-424"/>
<use x="0" y="0" xlink:href="#fg"/>
</svg>