<svg xmlns="http://www.w3.org/2000/svg" viewBox="0 0 64 55.98"><defs><style>.cls-1{fill:#ff969f;}.cls-2{fill:#f74f80;}.cls-3{fill:#e21b4d;}.cls-4{fill:#37474f;}</style></defs><title>Animal Pig</title><g id="Layer_2" data-name="Layer 2"><g id="Layer_1-2" data-name="Layer 1"><path class="cls-1" d="M64,36A32,32,0,0,0,0,36C0,53.65,14.33,56,32,56S64,53.65,64,36Z"/><path class="cls-1" d="M55.35,0A34.28,34.28,0,0,0,34,10L52,28A29.46,29.46,0,0,0,56.22.58.86.86,0,0,0,55.35,0Z"/><path class="cls-1" d="M8.56,0A34.28,34.28,0,0,1,29.92,10l-18,18A29.46,29.46,0,0,1,7.7.58.86.86,0,0,1,8.56,0Z"/><path class="cls-2" d="M42,38c0-6-2-8-10-8s-10,2-10,8,4.48,8,10,8S42,44,42,38Z"/><ellipse class="cls-3" cx="28" cy="37.98" rx="2" ry="4"/><ellipse class="cls-3" cx="36" cy="37.98" rx="2" ry="4"/><circle class="cls-4" cx="18" cy="23.98" r="4"/><circle class="cls-4" cx="46" cy="23.98" r="4"/></g></g></svg>